<mxfile host="app.diagrams.net" agent="Mozilla/5.0 (Windows NT 10.0; Win64; x64) AppleWebKit/537.36 (KHTML, like Gecko) Chrome/132.0.0.0 Safari/537.36" version="26.0.11">
  <diagram name="Page-1" id="GbOqAX8gS-BmZQPD8mnE">
    <mxGraphModel grid="1" page="1" gridSize="10" guides="1" tooltips="1" connect="1" arrows="1" fold="1" pageScale="1" pageWidth="850" pageHeight="1100" math="0" shadow="0">
      <root>
        <mxCell id="0" />
        <mxCell id="1" parent="0" />
        <mxCell id="Z-D4doJ-xCOgX-m-qgC_-3" value="" style="verticalLabelPosition=bottom;shadow=0;dashed=0;align=center;html=1;verticalAlign=top;shape=mxgraph.electrical.logic_gates.logic_gate;operation=and;negating=1;negSize=0.15;fillColor=#fff2cc;strokeColor=#d6b656;" vertex="1" parent="1">
          <mxGeometry x="120" y="380" width="100" height="60" as="geometry" />
        </mxCell>
        <mxCell id="Z-D4doJ-xCOgX-m-qgC_-61" style="edgeStyle=orthogonalEdgeStyle;rounded=0;orthogonalLoop=1;jettySize=auto;html=1;exitX=1;exitY=0.5;exitDx=0;exitDy=0;exitPerimeter=0;" edge="1" parent="1" source="Z-D4doJ-xCOgX-m-qgC_-5">
          <mxGeometry relative="1" as="geometry">
            <mxPoint x="470" y="174.1052631578948" as="targetPoint" />
          </mxGeometry>
        </mxCell>
        <mxCell id="Z-D4doJ-xCOgX-m-qgC_-5" value="" style="verticalLabelPosition=bottom;shadow=0;dashed=0;align=center;html=1;verticalAlign=top;shape=mxgraph.electrical.logic_gates.logic_gate;operation=xor;fillColor=#d5e8d4;strokeColor=#82b366;" vertex="1" parent="1">
          <mxGeometry x="340" y="144" width="100" height="60" as="geometry" />
        </mxCell>
        <mxCell id="Z-D4doJ-xCOgX-m-qgC_-6" value="" style="verticalLabelPosition=bottom;shadow=0;dashed=0;align=center;html=1;verticalAlign=top;shape=mxgraph.electrical.logic_gates.logic_gate;operation=xor;fillColor=#d5e8d4;strokeColor=#82b366;" vertex="1" parent="1">
          <mxGeometry x="340" y="425" width="100" height="60" as="geometry" />
        </mxCell>
        <mxCell id="Z-D4doJ-xCOgX-m-qgC_-8" value="" style="shape=xor;whiteSpace=wrap;html=1;fillColor=#dae8fc;strokeColor=#6c8ebf;" vertex="1" parent="1">
          <mxGeometry x="150" y="240" width="70" height="80" as="geometry" />
        </mxCell>
        <mxCell id="Z-D4doJ-xCOgX-m-qgC_-14" value="" style="group" connectable="0" vertex="1" parent="1">
          <mxGeometry x="160" y="120" width="70" height="80" as="geometry" />
        </mxCell>
        <mxCell id="Z-D4doJ-xCOgX-m-qgC_-1" value="" style="triangle;whiteSpace=wrap;html=1;fillColor=#f8cecc;strokeColor=#b85450;" vertex="1" parent="Z-D4doJ-xCOgX-m-qgC_-14">
          <mxGeometry width="60" height="80" as="geometry" />
        </mxCell>
        <mxCell id="Z-D4doJ-xCOgX-m-qgC_-4" value="" style="ellipse;whiteSpace=wrap;html=1;aspect=fixed;" vertex="1" parent="Z-D4doJ-xCOgX-m-qgC_-14">
          <mxGeometry x="60" y="35" width="10" height="10" as="geometry" />
        </mxCell>
        <mxCell id="Z-D4doJ-xCOgX-m-qgC_-18" value="" style="endArrow=none;html=1;rounded=0;exitX=1;exitY=0.5;exitDx=0;exitDy=0;entryX=0;entryY=0.25;entryDx=0;entryDy=0;entryPerimeter=0;" edge="1" parent="1" source="Z-D4doJ-xCOgX-m-qgC_-4" target="Z-D4doJ-xCOgX-m-qgC_-5">
          <mxGeometry width="50" height="50" relative="1" as="geometry">
            <mxPoint x="280" y="240" as="sourcePoint" />
            <mxPoint x="430" y="160" as="targetPoint" />
          </mxGeometry>
        </mxCell>
        <mxCell id="Z-D4doJ-xCOgX-m-qgC_-22" value="" style="group" connectable="0" vertex="1" parent="1">
          <mxGeometry x="220" y="189" width="120" height="91" as="geometry" />
        </mxCell>
        <mxCell id="Z-D4doJ-xCOgX-m-qgC_-19" value="" style="endArrow=none;html=1;rounded=0;entryX=0;entryY=0.25;entryDx=0;entryDy=0;entryPerimeter=0;" edge="1" parent="Z-D4doJ-xCOgX-m-qgC_-22">
          <mxGeometry width="50" height="50" relative="1" as="geometry">
            <mxPoint x="60" as="sourcePoint" />
            <mxPoint x="120" as="targetPoint" />
          </mxGeometry>
        </mxCell>
        <mxCell id="Z-D4doJ-xCOgX-m-qgC_-20" value="" style="endArrow=none;html=1;rounded=0;" edge="1" parent="Z-D4doJ-xCOgX-m-qgC_-22">
          <mxGeometry width="50" height="50" relative="1" as="geometry">
            <mxPoint x="60" y="1" as="sourcePoint" />
            <mxPoint x="60" y="91" as="targetPoint" />
          </mxGeometry>
        </mxCell>
        <mxCell id="Z-D4doJ-xCOgX-m-qgC_-21" value="" style="endArrow=none;html=1;rounded=0;entryX=0;entryY=0.25;entryDx=0;entryDy=0;entryPerimeter=0;" edge="1" parent="Z-D4doJ-xCOgX-m-qgC_-22">
          <mxGeometry width="50" height="50" relative="1" as="geometry">
            <mxPoint y="91" as="sourcePoint" />
            <mxPoint x="60" y="91" as="targetPoint" />
          </mxGeometry>
        </mxCell>
        <mxCell id="Z-D4doJ-xCOgX-m-qgC_-62" value="" style="endArrow=none;html=1;rounded=0;entryX=-0.081;entryY=-0.014;entryDx=0;entryDy=0;entryPerimeter=0;" edge="1" parent="Z-D4doJ-xCOgX-m-qgC_-22">
          <mxGeometry width="50" height="50" relative="1" as="geometry">
            <mxPoint x="52" y="91" as="sourcePoint" />
            <mxPoint x="277.1399999999999" y="89.88" as="targetPoint" />
          </mxGeometry>
        </mxCell>
        <mxCell id="Z-D4doJ-xCOgX-m-qgC_-23" value="" style="endArrow=none;html=1;rounded=0;exitX=1;exitY=0.5;exitDx=0;exitDy=0;entryX=0;entryY=0.25;entryDx=0;entryDy=0;entryPerimeter=0;" edge="1" parent="1">
          <mxGeometry width="50" height="50" relative="1" as="geometry">
            <mxPoint x="50" y="160.5" as="sourcePoint" />
            <mxPoint x="160" y="159.5" as="targetPoint" />
          </mxGeometry>
        </mxCell>
        <mxCell id="Z-D4doJ-xCOgX-m-qgC_-24" value="" style="endArrow=none;html=1;rounded=0;entryX=0;entryY=0.25;entryDx=0;entryDy=0;entryPerimeter=0;" edge="1" parent="1">
          <mxGeometry width="50" height="50" relative="1" as="geometry">
            <mxPoint x="80" y="261" as="sourcePoint" />
            <mxPoint x="163" y="261" as="targetPoint" />
          </mxGeometry>
        </mxCell>
        <mxCell id="Z-D4doJ-xCOgX-m-qgC_-25" value="" style="endArrow=none;html=1;rounded=0;entryX=0;entryY=0.25;entryDx=0;entryDy=0;entryPerimeter=0;" edge="1" parent="1">
          <mxGeometry width="50" height="50" relative="1" as="geometry">
            <mxPoint x="80" y="299" as="sourcePoint" />
            <mxPoint x="163" y="299" as="targetPoint" />
          </mxGeometry>
        </mxCell>
        <mxCell id="Z-D4doJ-xCOgX-m-qgC_-30" value="" style="endArrow=none;html=1;rounded=0;" edge="1" parent="1" source="Z-D4doJ-xCOgX-m-qgC_-49">
          <mxGeometry width="50" height="50" relative="1" as="geometry">
            <mxPoint x="120" y="300" as="sourcePoint" />
            <mxPoint x="120" y="530" as="targetPoint" />
          </mxGeometry>
        </mxCell>
        <mxCell id="Z-D4doJ-xCOgX-m-qgC_-32" value="" style="endArrow=none;html=1;rounded=0;" edge="1" parent="1" source="Z-D4doJ-xCOgX-m-qgC_-51">
          <mxGeometry width="50" height="50" relative="1" as="geometry">
            <mxPoint x="100" y="260" as="sourcePoint" />
            <mxPoint x="100" y="570" as="targetPoint" />
          </mxGeometry>
        </mxCell>
        <mxCell id="Z-D4doJ-xCOgX-m-qgC_-33" value="" style="endArrow=none;html=1;rounded=0;" edge="1" parent="1">
          <mxGeometry width="50" height="50" relative="1" as="geometry">
            <mxPoint x="100" y="425" as="sourcePoint" />
            <mxPoint x="120" y="425" as="targetPoint" />
          </mxGeometry>
        </mxCell>
        <mxCell id="Z-D4doJ-xCOgX-m-qgC_-34" value="" style="shape=xor;whiteSpace=wrap;html=1;fillColor=#dae8fc;strokeColor=#6c8ebf;" vertex="1" parent="1">
          <mxGeometry x="150" y="510" width="70" height="80" as="geometry" />
        </mxCell>
        <mxCell id="Z-D4doJ-xCOgX-m-qgC_-35" value="" style="endArrow=none;html=1;rounded=0;entryX=0;entryY=0.25;entryDx=0;entryDy=0;entryPerimeter=0;" edge="1" parent="1">
          <mxGeometry width="50" height="50" relative="1" as="geometry">
            <mxPoint x="120" y="530" as="sourcePoint" />
            <mxPoint x="163" y="531" as="targetPoint" />
          </mxGeometry>
        </mxCell>
        <mxCell id="Z-D4doJ-xCOgX-m-qgC_-36" value="" style="endArrow=none;html=1;rounded=0;entryX=0;entryY=0.25;entryDx=0;entryDy=0;entryPerimeter=0;" edge="1" parent="1">
          <mxGeometry width="50" height="50" relative="1" as="geometry">
            <mxPoint x="100" y="569" as="sourcePoint" />
            <mxPoint x="163" y="569" as="targetPoint" />
          </mxGeometry>
        </mxCell>
        <mxCell id="Z-D4doJ-xCOgX-m-qgC_-38" value="" style="group" connectable="0" vertex="1" parent="1">
          <mxGeometry x="220" y="470" width="140" height="71" as="geometry" />
        </mxCell>
        <mxCell id="Z-D4doJ-xCOgX-m-qgC_-39" value="" style="endArrow=none;html=1;rounded=0;entryX=0;entryY=0.25;entryDx=0;entryDy=0;entryPerimeter=0;" edge="1" parent="Z-D4doJ-xCOgX-m-qgC_-38">
          <mxGeometry width="50" height="50" relative="1" as="geometry">
            <mxPoint x="70" as="sourcePoint" />
            <mxPoint x="140" as="targetPoint" />
          </mxGeometry>
        </mxCell>
        <mxCell id="Z-D4doJ-xCOgX-m-qgC_-40" value="" style="endArrow=none;html=1;rounded=0;" edge="1" parent="Z-D4doJ-xCOgX-m-qgC_-38">
          <mxGeometry width="50" height="50" relative="1" as="geometry">
            <mxPoint x="70" y="0.7802197802197802" as="sourcePoint" />
            <mxPoint x="70" y="71" as="targetPoint" />
          </mxGeometry>
        </mxCell>
        <mxCell id="Z-D4doJ-xCOgX-m-qgC_-41" value="" style="endArrow=none;html=1;rounded=0;entryX=0;entryY=0.25;entryDx=0;entryDy=0;entryPerimeter=0;" edge="1" parent="Z-D4doJ-xCOgX-m-qgC_-38">
          <mxGeometry width="50" height="50" relative="1" as="geometry">
            <mxPoint y="71" as="sourcePoint" />
            <mxPoint x="70" y="71" as="targetPoint" />
          </mxGeometry>
        </mxCell>
        <mxCell id="Z-D4doJ-xCOgX-m-qgC_-46" value="" style="endArrow=none;html=1;rounded=0;exitX=1;exitY=0.5;exitDx=0;exitDy=0;" edge="1" parent="1">
          <mxGeometry width="50" height="50" relative="1" as="geometry">
            <mxPoint x="220" y="410.24" as="sourcePoint" />
            <mxPoint x="280" y="410" as="targetPoint" />
          </mxGeometry>
        </mxCell>
        <mxCell id="Z-D4doJ-xCOgX-m-qgC_-47" value="" style="endArrow=none;html=1;rounded=0;" edge="1" parent="1">
          <mxGeometry width="50" height="50" relative="1" as="geometry">
            <mxPoint x="279.74" y="410" as="sourcePoint" />
            <mxPoint x="280" y="440" as="targetPoint" />
          </mxGeometry>
        </mxCell>
        <mxCell id="Z-D4doJ-xCOgX-m-qgC_-48" value="" style="endArrow=none;html=1;rounded=0;entryX=0.175;entryY=0.242;entryDx=0;entryDy=0;entryPerimeter=0;" edge="1" parent="1" target="Z-D4doJ-xCOgX-m-qgC_-6">
          <mxGeometry width="50" height="50" relative="1" as="geometry">
            <mxPoint x="280" y="440" as="sourcePoint" />
            <mxPoint x="335" y="440" as="targetPoint" />
          </mxGeometry>
        </mxCell>
        <mxCell id="Z-D4doJ-xCOgX-m-qgC_-50" value="" style="endArrow=none;html=1;rounded=0;" edge="1" parent="1" target="Z-D4doJ-xCOgX-m-qgC_-49">
          <mxGeometry width="50" height="50" relative="1" as="geometry">
            <mxPoint x="120" y="300" as="sourcePoint" />
            <mxPoint x="120" y="530" as="targetPoint" />
          </mxGeometry>
        </mxCell>
        <mxCell id="Z-D4doJ-xCOgX-m-qgC_-49" value="" style="ellipse;html=1;verticalLabelPosition=bottom;labelBackgroundColor=#ffffff;verticalAlign=top;fillColor=#ffffff" vertex="1" parent="1">
          <mxGeometry x="115" y="390" width="10" height="10" as="geometry" />
        </mxCell>
        <mxCell id="Z-D4doJ-xCOgX-m-qgC_-52" value="" style="endArrow=none;html=1;rounded=0;" edge="1" parent="1" target="Z-D4doJ-xCOgX-m-qgC_-51">
          <mxGeometry width="50" height="50" relative="1" as="geometry">
            <mxPoint x="100" y="260" as="sourcePoint" />
            <mxPoint x="100" y="570" as="targetPoint" />
          </mxGeometry>
        </mxCell>
        <mxCell id="Z-D4doJ-xCOgX-m-qgC_-51" value="" style="ellipse;html=1;verticalLabelPosition=bottom;labelBackgroundColor=#ffffff;verticalAlign=top;fillColor=#ffffff" vertex="1" parent="1">
          <mxGeometry x="95" y="419" width="10" height="10" as="geometry" />
        </mxCell>
        <mxCell id="Z-D4doJ-xCOgX-m-qgC_-75" style="edgeStyle=orthogonalEdgeStyle;rounded=0;orthogonalLoop=1;jettySize=auto;html=1;exitX=1;exitY=0.5;exitDx=0;exitDy=0;exitPerimeter=0;" edge="1" parent="1" source="Z-D4doJ-xCOgX-m-qgC_-54">
          <mxGeometry relative="1" as="geometry">
            <mxPoint x="580" y="290" as="targetPoint" />
          </mxGeometry>
        </mxCell>
        <mxCell id="Z-D4doJ-xCOgX-m-qgC_-54" value="" style="shape=or;whiteSpace=wrap;html=1;fillColor=#fff2cc;strokeColor=#d6b656;" vertex="1" parent="1">
          <mxGeometry x="490" y="256" width="60" height="80" as="geometry" />
        </mxCell>
        <mxCell id="Z-D4doJ-xCOgX-m-qgC_-60" value="&lt;font style=&quot;font-size: 17px;&quot;&gt;a&lt;/font&gt;" style="text;html=1;align=center;verticalAlign=middle;whiteSpace=wrap;rounded=0;" vertex="1" parent="1">
          <mxGeometry x="38" y="244" width="60" height="30" as="geometry" />
        </mxCell>
        <mxCell id="Z-D4doJ-xCOgX-m-qgC_-73" value="" style="endArrow=none;html=1;rounded=0;exitX=1;exitY=0.5;exitDx=0;exitDy=0;exitPerimeter=0;" edge="1" parent="1" source="Z-D4doJ-xCOgX-m-qgC_-6">
          <mxGeometry width="50" height="50" relative="1" as="geometry">
            <mxPoint x="400" y="390" as="sourcePoint" />
            <mxPoint x="440" y="320" as="targetPoint" />
          </mxGeometry>
        </mxCell>
        <mxCell id="Z-D4doJ-xCOgX-m-qgC_-74" value="" style="endArrow=none;html=1;rounded=0;entryX=0;entryY=0.25;entryDx=0;entryDy=0;entryPerimeter=0;" edge="1" parent="1">
          <mxGeometry width="50" height="50" relative="1" as="geometry">
            <mxPoint x="440" y="320" as="sourcePoint" />
            <mxPoint x="490" y="320" as="targetPoint" />
          </mxGeometry>
        </mxCell>
        <mxCell id="Z-D4doJ-xCOgX-m-qgC_-78" value="&lt;font style=&quot;font-size: 17px;&quot;&gt;b&lt;/font&gt;" style="text;html=1;align=center;verticalAlign=middle;whiteSpace=wrap;rounded=0;" vertex="1" parent="1">
          <mxGeometry x="39" y="281" width="60" height="30" as="geometry" />
        </mxCell>
        <mxCell id="Z-D4doJ-xCOgX-m-qgC_-79" value="&lt;font style=&quot;font-size: 17px;&quot;&gt;c&lt;/font&gt;" style="text;html=1;align=center;verticalAlign=middle;whiteSpace=wrap;rounded=0;" vertex="1" parent="1">
          <mxGeometry x="13" y="142" width="60" height="30" as="geometry" />
        </mxCell>
        <mxCell id="Z-D4doJ-xCOgX-m-qgC_-80" value="&lt;span style=&quot;font-size: 17px;&quot;&gt;x&lt;/span&gt;" style="text;html=1;align=center;verticalAlign=middle;whiteSpace=wrap;rounded=0;" vertex="1" parent="1">
          <mxGeometry x="460" y="156" width="60" height="30" as="geometry" />
        </mxCell>
        <mxCell id="Z-D4doJ-xCOgX-m-qgC_-81" value="&lt;span style=&quot;font-size: 17px;&quot;&gt;y&lt;/span&gt;" style="text;html=1;align=center;verticalAlign=middle;whiteSpace=wrap;rounded=0;" vertex="1" parent="1">
          <mxGeometry x="570" y="275" width="60" height="30" as="geometry" />
        </mxCell>
        <mxCell id="Z-D4doJ-xCOgX-m-qgC_-86" value="&lt;font style=&quot;font-size: 15px;&quot;&gt;2023-EE-028&lt;/font&gt;" style="text;html=1;align=center;verticalAlign=middle;whiteSpace=wrap;rounded=0;" vertex="1" parent="1">
          <mxGeometry x="250" y="332" width="100" height="30" as="geometry" />
        </mxCell>
      </root>
    </mxGraphModel>
  </diagram>
</mxfile>
